<svg width="120" height="19" viewBox="0 0 120 19" fill="none" xmlns="http://www.w3.org/2000/svg">
<path d="M0.321023 18V0.545454H7.53125C8.83807 0.545454 9.96591 0.78125 10.9148 1.25284C11.8693 1.71875 12.6051 2.3892 13.1222 3.2642C13.6392 4.13352 13.8977 5.16477 13.8977 6.35795C13.8977 7.56818 13.6335 8.59659 13.1051 9.44318C12.5767 10.2841 11.8267 10.9261 10.8551 11.3693C9.88352 11.8068 8.73295 12.0256 7.40341 12.0256H2.84375V8.7017H6.61932C7.25568 8.7017 7.78693 8.61932 8.21307 8.45455C8.64489 8.28409 8.97159 8.02841 9.19318 7.6875C9.41477 7.34091 9.52557 6.89773 9.52557 6.35795C9.52557 5.81818 9.41477 5.37216 9.19318 5.01989C8.97159 4.66193 8.64489 4.39489 8.21307 4.21875C7.78125 4.03693 7.25 3.94602 6.61932 3.94602H4.53977V18H0.321023ZM10.1477 10.0227L14.4943 18H9.89205L5.63068 10.0227H10.1477ZM19.9872 18H15.4531L21.3423 0.545454H26.9588L32.848 18H28.3139L24.2145 4.94318H24.0781L19.9872 18ZM19.3821 11.1307H28.8594V14.3352H19.3821V11.1307ZM41.179 18H34.7273V0.545454H41.1705C42.9489 0.545454 44.4801 0.894886 45.7642 1.59375C47.054 2.28693 48.0483 3.28693 48.7472 4.59375C49.446 5.89489 49.7955 7.4517 49.7955 9.2642C49.7955 11.0824 49.446 12.6449 48.7472 13.9517C48.054 15.2585 47.0625 16.2614 45.7727 16.9602C44.483 17.6534 42.9517 18 41.179 18ZM38.946 14.4034H41.017C41.9943 14.4034 42.821 14.2386 43.4972 13.9091C44.179 13.5739 44.6932 13.0312 45.0398 12.2812C45.392 11.5256 45.5682 10.5199 45.5682 9.2642C45.5682 8.00852 45.392 7.00852 45.0398 6.2642C44.6875 5.5142 44.1676 4.97443 43.4801 4.64489C42.7983 4.30966 41.9574 4.14204 40.9574 4.14204H38.946V14.4034Z" fill="#2B4EFE"/>
<path d="M61.6932 5.77841C61.6364 5.15341 61.3835 4.66761 60.9347 4.32102C60.4915 3.96875 59.858 3.79261 59.0341 3.79261C58.4886 3.79261 58.0341 3.86364 57.6705 4.00568C57.3068 4.14773 57.0341 4.34375 56.8523 4.59375C56.6705 4.83807 56.5767 5.11932 56.571 5.4375C56.5597 5.69886 56.6108 5.92898 56.7244 6.12784C56.8438 6.3267 57.0142 6.50284 57.2358 6.65625C57.4631 6.80398 57.7358 6.93466 58.054 7.0483C58.3722 7.16193 58.7301 7.26136 59.1278 7.34659L60.6278 7.6875C61.4915 7.875 62.2528 8.125 62.9119 8.4375C63.5767 8.75 64.1335 9.12216 64.5824 9.55398C65.0369 9.9858 65.3807 10.483 65.6136 11.0455C65.8466 11.608 65.9659 12.2386 65.9716 12.9375C65.9659 14.0398 65.6875 14.9858 65.1364 15.7756C64.5852 16.5653 63.7926 17.1705 62.7585 17.5909C61.7301 18.0114 60.4886 18.2216 59.0341 18.2216C57.5739 18.2216 56.3011 18.0028 55.2159 17.5653C54.1307 17.1278 53.2869 16.4631 52.6847 15.571C52.0824 14.679 51.7727 13.5511 51.7557 12.1875H55.7955C55.8295 12.75 55.9801 13.2188 56.2472 13.5938C56.5142 13.9688 56.8807 14.2528 57.3466 14.446C57.8182 14.6392 58.3636 14.7358 58.983 14.7358C59.5511 14.7358 60.0341 14.6591 60.4318 14.5057C60.8352 14.3523 61.1449 14.1392 61.3608 13.8665C61.5767 13.5937 61.6875 13.2812 61.6932 12.929C61.6875 12.5994 61.5852 12.3182 61.3864 12.0852C61.1875 11.8466 60.8807 11.642 60.4659 11.4716C60.0568 11.2955 59.5341 11.1335 58.8977 10.9858L57.0739 10.5597C55.5625 10.2131 54.3722 9.65341 53.5028 8.88068C52.6335 8.10227 52.2017 7.05114 52.2074 5.72727C52.2017 4.64773 52.4915 3.7017 53.0767 2.8892C53.6619 2.0767 54.4716 1.44318 55.5057 0.988636C56.5398 0.534091 57.7188 0.306818 59.0426 0.306818C60.3949 0.306818 61.5682 0.536931 62.5625 0.997158C63.5625 1.4517 64.3381 2.09091 64.8892 2.91477C65.4403 3.73864 65.7216 4.69318 65.733 5.77841H61.6932ZM67.233 0.545454H71.946L75.6364 7.84943H75.7898L79.4801 0.545454H84.1932L77.8097 12.1705V18H73.6165V12.1705L67.233 0.545454ZM100.817 0.545454V18H97.2372L90.2912 7.92614H90.1804V18H85.9616V0.545454H89.5923L96.4616 10.6023H96.6065V0.545454H100.817ZM119.313 6.86932H115.052C114.995 6.43182 114.879 6.03693 114.702 5.68466C114.526 5.33239 114.293 5.03125 114.004 4.78125C113.714 4.53125 113.37 4.34091 112.972 4.21023C112.58 4.07386 112.146 4.00568 111.668 4.00568C110.822 4.00568 110.092 4.21307 109.478 4.62784C108.87 5.04261 108.401 5.64205 108.072 6.42614C107.748 7.21023 107.586 8.15909 107.586 9.27273C107.586 10.4318 107.751 11.4034 108.08 12.1875C108.415 12.9659 108.884 13.554 109.487 13.9517C110.094 14.3437 110.813 14.5398 111.643 14.5398C112.109 14.5398 112.532 14.4801 112.913 14.3608C113.299 14.2415 113.637 14.0682 113.927 13.8409C114.222 13.608 114.464 13.3267 114.651 12.9972C114.844 12.6619 114.978 12.2841 115.052 11.8636L119.313 11.8892C119.239 12.6619 119.015 13.4233 118.64 14.1733C118.271 14.9233 117.762 15.608 117.114 16.2273C116.467 16.8409 115.677 17.3295 114.745 17.6932C113.819 18.0568 112.756 18.2386 111.558 18.2386C109.978 18.2386 108.563 17.892 107.313 17.1989C106.069 16.5 105.086 15.483 104.364 14.1477C103.643 12.8125 103.282 11.1875 103.282 9.27273C103.282 7.35227 103.648 5.72443 104.381 4.3892C105.114 3.05398 106.106 2.03977 107.356 1.34659C108.606 0.653409 110.006 0.306818 111.558 0.306818C112.614 0.306818 113.592 0.454545 114.489 0.75C115.387 1.03977 116.177 1.46591 116.859 2.02841C117.54 2.58523 118.094 3.26989 118.521 4.08239C118.947 4.89489 119.211 5.82386 119.313 6.86932Z" fill="#0F1133"/>
</svg>
